<svg width="817" height="555" viewBox="0 0 817 555" fill="none" xmlns="http://www.w3.org/2000/svg">
<path fill-rule="evenodd" clip-rule="evenodd" d="M382.116 88.7807C306.264 95.9307 240.606 125.234 187.508 178.017C140.885 224.363 107.887 286.437 94.9998 352.035C89.8358 378.32 88.0158 385.001 87.9998 418.281L85.9919 449.781L76.9998 452.061C67.5048 452.063 66.3789 450.834 55.9999 452.061C48.4469 452.953 50.8669 453.739 70.9998 456.933C80.0748 458.372 77.6928 456.484 89.9998 458.681C119.699 463.98 130.312 464.93 144.413 463.549C160.476 461.976 172.791 458.082 184.973 453.891C194.349 450.665 196.594 450.27 205.5 450.281C216.061 450.293 225.367 453.508 246.099 461.781C250.077 463.368 253.34 464.919 253.349 465.226C253.358 465.534 243.239 469.405 240.5 470.281C235.832 471.774 235.139 471.754 229.411 469.972C220.553 467.214 200.764 470.346 192 473.439C185.373 475.778 178.095 479.585 179.884 477.577L190.5 470.985L188 471.781C185.25 472.182 178.275 473.562 172.5 474.848C153.482 479.081 143.94 480.391 127.5 480.281C87.3616 480.012 13.881 478.517 13.5 478.898C12.634 479.763 7.52785 478.016 12.2039 478.898C98.1128 495.1 130.982 497.055 154.924 494.467C172.781 492.537 180.403 491.15 227 475.781C280.593 458.104 295.432 453.023 308.116 450.281C340.814 443.212 373.625 442.918 413.5 450.281C427.161 452.803 428.256 450.435 440.059 448.781C455.557 446.609 473.206 449.926 487.654 453.31C493.429 454.663 508.05 458.347 519.875 462.281C557.094 474.666 570.345 474.174 604.375 475.285C625.244 475.966 628.937 478.604 635.61 480.429C640.007 481.632 646.669 485.549 646.901 485.781C647.133 486.013 643.474 489.411 639.12 489.428C634.765 489.444 624.678 490.106 616.703 490.898C608.728 491.69 595.791 495.211 591.116 495.225C574.747 495.275 553.504 490.609 521.116 479.851C486.754 468.438 477.278 465.442 433.5 465.458C415.9 465.465 397.675 464.999 393 464.423C380.537 462.888 354.63 465.39 343.293 467.189C331.325 469.088 313.357 473.96 302.178 478.337C297.537 480.154 279.232 478.543 279.027 478.337C278.821 478.131 282.056 476.084 286.215 473.788C290.374 471.492 300 468.961 300 468.673C300 467.856 285.775 472.979 277.5 475.095C257.43 480.227 253.438 485.537 226 498.556C210.365 505.974 201.036 503.715 205.5 499.781C208.751 496.916 214.306 495.302 213 495.281C212.006 495.264 208.49 498.85 199.309 501.281C164.463 510.506 149.709 512.72 115.616 513.839C83.0839 514.907 94.8229 510.216 53.9999 522.281C44.7319 525.019 21.4999 526.781 37.9999 526.281C54.4999 525.781 62.7018 526.506 102.5 526.281C174.38 525.874 164.768 524.624 183.146 521.992C212.462 517.792 229.064 514.754 269 506.281C308.306 497.942 304.945 498.556 315.667 498.556C319.216 498.556 322.119 498.148 322.119 497.65C322.119 495.985 323.181 497.406 314.616 496.781L306.145 496.164L321.5 488.281C335.563 483.495 345.49 478.342 367.5 478.337C390.392 478.333 408.549 482.159 427.587 487.945C436.405 490.625 463.907 508.672 463.116 509.462C462.952 509.626 448.894 509.047 443.416 508.175C429.433 505.95 398.495 509.176 385.412 511.412C370.726 513.922 352.749 516.065 337.703 521.709C330.389 524.452 315.811 526.579 315.667 526.435C315.523 526.292 320.021 518.668 324.144 516.057C330.499 512.031 338.092 511.412 336 511.412C331.87 511.412 313.47 519.861 282 530.281C241.987 543.529 225.887 549.281 223 549.281C222.106 549.281 210.771 551.093 211 551.781C211.331 552.773 231.639 548.577 358.5 548.781C446.454 548.922 503.734 553.321 504.5 553.029C505.266 552.738 493 553.032 493 549.281C492.293 548.588 485.863 547.83 470 545.281C461.475 543.911 443.675 543.986 433.5 542.781C423.325 541.576 407.825 535.073 407 534.781C406.175 534.49 418.625 530.848 425.5 529.781C435.773 528.187 432.586 527.402 459.5 527.281C477.511 527.2 495.385 529.737 495 528.281C495.004 527.898 481.068 527.018 475.412 525.281L466.5 517.281H481C491.672 517.221 511.364 519.362 542 526.281C584.941 535.978 582.604 537.299 632 536.508C654.825 536.143 666.75 537.706 669.5 537.281L674.5 536.508L671 535.86C669.075 535.503 665.575 536.433 656.5 535.281C647.425 534.13 637.525 532.544 634.5 531.758C631.475 530.971 627.575 526.97 629.5 527.281C631.425 527.591 648.745 524.081 692.883 524.369C772.985 524.891 789.732 526.401 778.5 523.406C776.163 522.782 779.95 525.857 775 524.281C748.128 515.725 722.325 517.751 693.086 516.402C667.122 515.205 667.746 512.83 652.116 507.781L631.155 496.573L655.5 493.281C673.981 493.333 700.383 494.087 706.961 493.281C716.954 492.055 737.421 491.112 754.5 487.962C784.554 482.421 793.34 480.453 792.357 479.485C791.625 478.764 735.019 481.656 696.116 482.131C682.483 482.297 676.214 481.429 656.785 476.685C647.838 474.5 650.418 474.29 649.943 475.06C649.467 475.829 647.448 475.524 643.273 474.054C634.242 470.874 610.986 469.272 602.616 472.781C595.633 475.708 580.565 475.991 580.565 474.115C580.565 472.587 602.459 457.666 609.5 455.104C613.573 453.622 617.766 452.986 623.768 452.94C631.017 452.885 633.896 451.866 641.572 454.697C660.614 461.719 676.064 464.811 691.953 464.781C703.915 464.758 693.619 466.71 720.538 461.724C731.099 459.768 747.732 456.788 757.5 455.104C767.268 453.419 779.763 453.649 780 453.412C780.236 453.175 770.091 455.813 769.325 455.576C767.807 455.104 743.5 452.513 731.405 452.19C725.313 452.027 727.714 450.381 728 449.163C728.193 448.338 728.596 437.267 728.893 424.561C730.167 370.368 720.924 328.323 699.078 278.778C682.492 241.162 661.005 209.844 631.5 180.281C579.745 128.424 526.567 101.379 455.616 90.7447C439.612 88.3457 398.408 87.2447 382.116 88.7807ZM386.116 100.394C379.704 100.978 345.212 107.936 344.866 108.281C344.708 108.44 359.678 109.232 370.187 109.314C380.697 109.396 390.021 109.869 390.908 110.365C393.326 111.718 385.375 112.393 355.616 113.361C331.807 114.136 323.868 113.485 317 115.781L309.5 118.287L343.616 119.356C372.709 119.492 384.186 120.412 373.616 121.76C367.717 122.513 327.981 124.371 310.116 124.729C299.839 124.935 292.228 125.354 288.528 127.089L284.028 129.199L322.616 129.434C363.289 129.714 374.568 130.679 350.616 131.829C341.816 132.251 328.541 133.012 321.116 133.521C313.691 134.029 300.866 134.464 292.616 134.489C282.236 134.519 273.183 134.88 271.557 135.781C269.073 137.159 271.053 137.127 341.366 139.131C353.878 139.488 364.116 140.088 364.116 140.464C364.116 140.84 355.453 141.449 344.866 141.817C334.279 142.185 316.841 143.152 306.116 143.967C295.391 144.781 279.84 145.451 271.557 145.455C259.873 145.46 251.122 145.642 249.616 146.781C247.898 148.081 257.272 148.415 293.116 148.539C315.391 148.616 336.316 149.014 339.616 149.424C342.916 149.833 345.166 150.235 344.616 150.317C339.253 151.116 260.574 153.43 254.116 152.978C246.772 152.464 239.952 152.625 237.5 154.281C234.675 156.19 240.143 156.221 284.028 156.961C308.276 157.369 328.116 158.051 328.116 158.476C328.116 158.901 320.578 159.514 311.366 159.839C302.154 160.163 282.016 161.123 266.616 161.972C251.216 162.821 236.565 163.503 234.057 163.489C231.55 163.474 224.134 164.474 223.066 165.281C221.333 166.592 227.34 166.402 241.705 166.43C265.602 166.477 300.116 167.681 300.116 168.468C300.116 168.846 293.029 169.463 284.366 169.84C275.703 170.216 260.066 171.179 249.616 171.979C239.166 172.778 227.218 173.439 223.066 173.447C218.546 173.456 209.616 173.944 208.898 174.662C207.338 176.222 207.363 177.593 208.948 177.387C213.641 176.778 277.116 177.633 277.116 178.312C277.116 178.779 271.828 179.492 265.366 179.896C212.181 183.219 199.367 184.527 197.616 186.281C195.952 187.948 201.758 187.468 223.152 187.579C247.196 187.704 260.475 188.572 256.116 189.735C253.205 190.511 215.662 192.462 203.636 192.462C196.876 192.462 190.398 192.793 189 194.338C187.445 196.057 187.439 196.267 188.927 196.838C189.82 197.181 201.43 197.495 208.948 197.536C216.465 197.577 224.641 197.949 227.116 198.363L231.616 199.116L228.116 199.712C212.057 202.447 203.606 203.493 197.616 203.489C186.422 203.481 178.221 204.272 175.303 208.099C171.886 212.578 174.113 213.628 179.5 210.079C184.845 206.557 196.047 205.782 201.552 207.884C203.976 208.81 206.499 210.219 207.16 211.015C208.684 212.851 210.116 212.876 210.116 211.066C210.116 208.753 216.818 203.609 220.806 202.86C222.887 202.47 226.43 202.666 228.815 203.304C232.563 204.307 233.494 204.202 236.354 202.459C240.715 199.799 250.978 199.762 256.753 202.384C265.082 206.167 273.028 215.729 273.094 222.05C273.116 224.134 273.001 224.14 220.517 224.76C169.699 225.36 165.118 225.656 165.116 228.334C165.115 228.68 167.703 228.966 170.866 228.972C174.028 228.977 186.066 229.563 197.616 230.275C209.166 230.986 224.466 231.904 231.616 232.315L244.616 233.062L236.116 233.708C231.441 234.063 218.616 234.769 207.616 235.277C189.302 236.122 186.984 236.44 180.116 239.042C174.238 241.27 170.79 241.914 164.172 242.023C157.067 242.14 155.526 242.465 154.461 244.069C153.321 245.786 153.465 245.981 155.905 246.017C165.85 246.166 168.116 246.521 168.116 247.927C168.116 250.47 163.927 251.857 157.038 251.594C152.071 251.404 150.143 251.725 149.165 252.902C148.016 254.288 148.587 254.462 154.271 254.462C158.231 254.462 161.457 255.012 162.733 255.906C164.653 257.251 165.159 256.981 170.119 251.959C185.064 236.826 209.493 237.267 224.555 252.943L229.842 258.445L233.024 256.858C239.807 253.474 251.3 255.905 258.529 262.251C260.286 263.794 264.967 267.524 267 268.781C269.033 270.037 264.5 270.328 264.5 270.781C264.5 271.233 263.356 272.402 261 273.783C255.531 276.988 248.638 284.366 244.251 291.712C242.362 294.875 243.059 295.29 242.5 295.281C241.941 295.271 242.639 294.488 240.5 290.895L236.61 284.363L227.227 284.896C214.334 285.8 134.375 287.498 132.82 286.902C131.841 286.526 127.695 287.308 127.016 289.254L126 292.169L166.969 292.886C203.242 293.577 213.343 294.503 199.957 295.912C196.47 296.279 189.116 297.426 183.616 298.462C171.308 300.78 166.49 301.258 143.213 302.473C133.092 303.002 122.122 303.553 122 303.698C121.877 303.843 121.5 304.862 121.162 305.962C120.577 307.865 123.526 307.946 131.179 307.634C138.485 307.336 139.523 307.535 142.494 309.801C145.378 312.001 147.151 312.381 157.478 313.017C171.065 313.854 172.546 315.459 161.036 316.875L153.616 317.788L157.41 319.278C159.915 320.261 161.101 321.31 160.9 322.364C160.551 324.198 150.412 325.158 129.366 325.35C119.536 325.44 114.5 326.148 114.5 327.281C114.5 328.849 120.201 329.051 132.616 329.933C146.749 330.938 152.116 331.639 152.116 332.481C152.116 332.934 149.529 335.139 146.366 337.383L140.616 341.462H126.866C113.783 341.462 109.723 341.378 109.723 343.281C109.723 345.159 113.783 345.462 124.034 345.462C134.941 345.462 138.116 345.927 138.116 347.524C138.116 348.716 133.21 349.369 121.616 349.72C112.477 349.996 107.506 350.195 107.239 352.035C107.019 353.548 111.6 354.051 113.324 354.063C124.847 354.139 131.116 354.619 131.116 355.423C131.116 356.922 121.32 359.462 115.541 359.462C111.712 359.462 105.946 359.881 105.5 361.044C104.025 364.888 104.725 365.462 110.893 365.462C115.759 365.462 121.116 365.768 121.116 367.083C121.116 368.462 120.144 368.631 114.616 368.214L105 367.725V370.661C105 373.002 108.47 373.484 109.866 373.041C110.829 372.736 114.287 372.92 117.551 373.451C123.188 374.369 126.614 374.359 130 371.781C140 364.165 158.759 346.57 175.059 329.366C185.112 318.756 192.674 311.432 193.038 311.281C193.403 311.131 195.062 313.903 199.957 319.278C217.134 338.143 222.941 343.795 226.921 345.528C229.125 346.487 234.511 351.474 239.732 356.415C252.159 368.172 256.271 371.712 257.5 371.712C258.383 371.712 259.576 383.732 258.678 384.781C258.518 384.967 258.449 385.348 256.366 382.962C254.282 380.576 246.322 372.595 238.535 364.677L224.376 350.281L219.204 355.423C217.965 359.216 216.652 362.651 216.286 363.057C215.921 363.463 213.488 357.309 206.659 345.528C199.831 333.746 191.869 323.553 191.5 323.781C189.795 324.835 161.276 378.057 162 378.781C162 378.781 164.174 381.904 165.5 380.781C170.193 376.803 185.116 360.042 185.116 359.258C185.116 358.82 185.508 358.462 185.988 358.462C186.467 358.462 187.218 364.424 187.657 371.712C188.096 379 188.658 384.062 188.906 382.962C189.154 381.862 189.789 379.837 190.317 378.462C191.234 376.077 191.382 376.215 193.542 381.462C199.645 396.289 208.079 409.743 217.989 420.462L223.075 425.962L220.202 419.462C218.623 415.887 216.184 409.137 214.784 404.462C208.858 384.678 206.23 375.014 206.659 374.586C207.24 374.004 206.252 372.664 217.624 389.462C223.023 397.437 229.729 406.647 232.528 409.928C237.965 416.303 248.563 426.686 252.317 429.315L254.598 430.913L252.28 427.437C245.702 417.571 230.832 381.413 232.619 379.626C232.965 379.279 234.902 381.013 236.922 383.479C242.206 389.927 253.484 400.884 258.678 404.614L263.138 407.817L262.377 412.889C260.988 422.149 261.564 440.49 263.439 446.712C265.13 452.322 265.498 455.071 269 455.071C272.245 455.071 274.58 452.316 274 450.281C271.161 440.322 271.211 436.295 271.211 431.324C271.211 421.719 273.224 410.305 276.151 403.309L277.5 394.747L274.681 394.183C265.694 392.386 265.381 373.576 274.681 363.281C281.382 355.865 286.884 353.441 294.637 357.12C303.382 361.27 305.547 373.9 300 385.795C297.387 391.399 297.942 395.239 299.5 398.281C302.044 403.251 314.733 415.039 322.386 419.541C329 423.431 332.775 422.057 335.834 420.781C342.217 418.117 351.49 419.569 354.984 423.779C356.025 425.033 358.122 424.432 362.243 420.311C365.562 416.992 368.239 415.254 370.76 414.781C376.387 413.725 382.866 417.379 385.412 419.771C388.504 422.676 389.217 422.489 393 417.781C394.815 415.522 398.648 410.055 400.5 409.281C403.791 407.906 403.867 407.739 403.867 401.888C403.867 398.595 402.643 391.913 402.207 391.913C401.484 391.913 402.716 389.177 381 395.281C369.706 398.456 352.297 404.834 349.886 404.836C347.801 404.837 344.714 407.906 349 401.281C367.676 372.41 375.428 334.925 368.5 298.781C365.887 285.15 363.358 275.809 356.5 261.781C343.6 235.393 320.771 214.326 292 199.281C284.597 195.41 281.703 195.377 278 195.781C274.537 196.159 274.798 196.979 273 195.281C268.548 191.076 270.382 187.107 276.5 187.281C278.278 187.332 280.851 189.833 281.5 190.281C282.15 190.729 304.675 189.056 333 188.781H385L395.5 174.781L403.938 162.281L406 143.062C405.985 130.919 402.981 125.949 402 123.652C400.725 120.665 400.789 122.804 403 120.45C406.322 116.913 407.129 116.801 410 120.45C411.488 122.342 410.377 123.971 410 125.854C409.596 127.875 412.996 133.667 414 133.281C414.744 132.996 418.557 133.083 422.5 134.281C429.396 136.376 427.06 134.787 431.299 133.168C437.027 130.98 446.743 128.875 454 129.781L449.413 132.408L443 138.162L447.781 141.976C450.04 144.671 452.838 147.733 454 148.781C455.161 149.829 456.5 150.352 456.5 150.781C456.5 151.21 454.989 151.036 450.176 150.753C442.682 150.312 440.217 147.421 433 149.63C423.292 152.601 422.932 154.826 417.242 152.818L411.5 153.781L410 161.281C410 164.178 411.979 166.134 413.526 167.781C414.742 169.075 417.153 175.93 420.5 181.271L426.585 190.982L468.202 192.281C489.113 192.599 504.93 189.428 505.5 189.781C506.071 190.133 501.824 193.914 503.5 193.281C506.021 192.329 510.347 187.87 512.5 189.281C517.99 192.878 511.76 195.07 505 194.281L504 198.781L512 207.781C534.756 232.469 545.837 259.96 545.818 291.677C545.814 298.629 541.545 304.884 540.972 308.459C537.193 332.027 527.986 354.453 516 369.281C511.769 374.517 512.029 372.879 508.394 372.781C487.438 372.216 453.661 376.21 428.93 382.177L419 387.281L418.714 398.166C418.542 404.73 421.876 412.657 422.5 413.281C423.215 413.996 427 413.32 427 412.281C427 409.854 430.487 404.318 434.5 401.888C437.263 400.216 439.763 399.641 444.289 399.637C449.441 399.633 449.725 401.355 453.765 404.031C457.683 406.626 458.703 406.937 459.5 405.781C460.033 405.007 463.786 401.499 465.433 398.911C471.546 389.307 484.466 386.366 494 392.409L498.5 394.781L509.902 388.948C531.436 377.93 548.533 366.422 559.692 352.95C576.918 332.155 581.839 311.209 573.829 292.781C563.764 269.627 561.02 269.454 561 260.781C560.975 249.618 563.472 243.036 569.936 237.224C575.427 232.287 575.815 231.522 583.602 231.554C603.362 231.635 612.146 251.278 598.195 265.229C594.798 268.625 590.3 269.317 586.406 268.746C584.762 268.504 579.472 269.905 579.642 270.218C579.812 270.531 582.448 275.062 585.5 280.288C599.892 304.924 609.234 335.863 611.5 366.281C612.146 374.944 612.916 382.014 613.211 381.994C613.507 381.974 620.888 376.661 626.11 372.281C631.332 367.901 635.938 364.318 636.347 364.318C636.756 364.318 640.441 371.399 647.736 378.808L661 392.281L669.597 383.934C672.886 381.475 675.737 383.281 675.933 383.281C676.129 383.281 683.338 389.983 691.953 398.174C700.567 406.366 708.711 414.299 710.5 415.781L714.101 417.781V406.801C714.087 399.543 716.572 396.07 715 396.281C713.117 396.532 713.047 396.162 714.732 394.885C716.043 393.893 713.177 392.842 712.754 391.157C712.255 389.168 711.248 388.594 706.961 387.855C704.107 387.364 701.577 386.369 701.338 385.644C701.099 384.919 701.514 384.41 702.26 384.512C703.006 384.615 705.558 384.646 707.932 384.58C712.028 384.468 713.055 384.39 712.754 381.781C712.44 379.044 711.577 378.962 703.616 378.881C692.764 378.77 692.116 378.668 692.116 377.069C692.116 375.139 693.943 374.607 703.213 373.833L711.258 373.163L711.427 370.564C711.068 369.135 710.699 367.9 710.606 367.819C710.513 367.738 703.12 367.348 695.182 366.951C678.719 366.13 678.42 366.099 677.478 365.158C677.096 364.775 680.345 364.459 684.699 364.456C689.054 364.453 696.328 364.161 700.866 363.808C708.55 363.21 710 363.365 710 361.281C710 359.077 708.86 358.681 691.866 358.024C682.379 357.658 673.266 357.062 671.616 356.7C668.968 356.119 669.262 355.961 674.116 355.351C677.141 354.971 684.622 354.615 690.741 354.561C696.86 354.507 704.781 354.181 706.5 353.837C709.466 353.244 710.656 351.218 708.737 350.031C708.247 349.729 697.177 349.229 685.978 348.92C674.779 348.611 664.041 348.071 662.116 347.721C658.753 347.109 658.831 347.057 664.116 346.372C667.141 345.98 677.828 345.615 687.866 345.561C703.51 345.476 706.961 345.088 706.961 343.781C706.961 341.491 702.68 340.759 691.106 340.058C667.468 338.626 663.192 338.324 653.76 337.413C648.339 336.89 643.202 336.462 642.343 336.462C641.485 336.462 641.006 336.238 641.28 335.965C641.553 335.691 646.466 335.237 652.197 334.955C674.772 333.843 702.627 332.257 702.826 332.071C702.942 331.963 702.795 330.95 702.499 329.82C701.973 327.807 701.168 327.751 662.804 327.045C641.267 326.649 623.425 326.104 623.155 325.834C622.109 324.789 626.784 317.911 630.014 315.743C634.002 313.066 641.109 312.688 645.398 314.925C648.018 316.292 648.438 316.193 652.638 313.234C658.065 309.408 666.51 308.346 672.292 310.762C675.903 312.271 675.904 312.27 676.458 309.502C677.065 306.467 679.762 305.475 687.491 305.447C691.475 305.432 697.052 304.335 696 303.281C695.718 303 685.227 302.045 675.075 301.433C664.922 300.821 647.915 299.452 637.279 298.391C626.644 297.33 617.307 296.462 616.529 296.462C615.752 296.462 615.116 296.062 615.116 295.573C615.116 295.084 624.904 294.386 636.866 294.022C648.828 293.659 663.116 293.19 668.616 292.98C674.116 292.77 684.809 292.568 687.697 292.53C693.278 292.458 693.779 291.983 691.528 288.903C690.176 287.054 684.416 286.938 646.947 286.462C621.527 286.139 607.686 285.608 607.813 284.962C607.922 284.412 608.822 283.807 609.813 283.617C610.805 283.427 613.024 281.929 614.745 280.288C618.775 276.445 624.689 275.515 629.965 277.894L633.744 279.598L637.716 275.626C643.872 269.471 656.149 267.467 660.971 271.831C662.604 273.309 663.053 273.278 666.642 271.449C668.816 270.34 675.788 269.462 678.292 269.462C681.832 269.462 682.522 269.203 681.557 268.238C680.745 267.426 674.515 267.121 669.476 267.331C660.096 267.723 662.581 265.933 672 264.924C678.647 264.212 679.561 263.597 677.058 261.519C675.42 260.16 670.258 259.891 642.116 258.383C630.841 257.779 621.189 256.875 620.666 256.373C620.093 255.824 629.971 255.462 645.538 255.462H674.5L673.009 253.212C671.567 251.037 667.723 250.945 648.827 250.462C620.936 249.749 621.792 248.242 650.866 246.876C658.703 246.507 669 245.693 669 245.281C669 242.866 661.245 242.489 642.543 242.234L622.622 241.962L619.892 236.962C618.391 234.212 617.152 231.624 617.139 231.212C617.127 230.8 625.441 230.462 635.616 230.462C645.791 230.462 656.957 230.112 656.957 229.685C656.957 229.257 656.301 227.971 655.5 226.826C654.321 225.144 649.709 224.618 643.409 224.078C629.035 222.847 601.624 219.258 600.811 218.501C600.003 217.75 635.213 215.894 643.409 216.214C647.691 216.382 647.744 216.346 646.004 214.424C644.504 212.766 639.475 212.461 632.211 212.456C619.826 212.447 607.116 211.318 607.116 210.226C607.116 209.665 613.554 209.422 623.095 209.624L643 209.962L640.652 207.615C637.71 204.676 626.733 204.018 581.616 202.471C564.016 201.868 547.591 201.063 545.116 200.681C540.286 199.937 573.877 198.833 608.54 198.598L631.5 198.462L632.211 195.962L626.827 193.462H577.501C552.054 193.462 530.993 193.072 530.699 192.596C529.042 189.916 540.661 185.513 549.484 185.478C552.329 185.466 554.243 184.68 556.721 182.504C563.11 176.894 572.578 176.47 579.367 181.49L582.301 183.659L584.959 181.22C588.937 177.569 593.292 176.239 600.022 176.62C606.013 176.959 610.931 176.708 609 174.781C607.13 172.915 600.038 173.053 550.143 172.639C521.528 172.401 498.116 171.814 498.116 171.334C498.116 168.934 504.907 164.394 510.511 163.047C512.152 162.652 513.018 161.983 512.511 161.5C510.443 159.533 497.884 156.641 488.116 155.883C478.513 155.137 478.043 155.011 482.616 154.397C490.305 153.365 507.723 153.367 516.616 154.401C524.365 155.302 524.688 155.255 526.898 152.906C533.484 145.906 545.166 144.78 552.375 150.451C554.5 152.123 555.076 152.215 556.051 151.04C556.688 150.273 558.804 148.889 560.755 147.963L570 146.28L567.796 144.736C565.947 143.441 553.407 143.061 519.754 142.385C497.678 141.941 476.128 141.552 471.866 141.52C467.405 141.487 464.116 141.038 464.116 140.462C464.116 139.835 471.288 139.412 483.366 139.329C493.953 139.255 513.191 138.918 526.116 138.579L554.662 137.962L550.143 135.815C545.96 133.829 537.977 133.584 505.65 132.535C486.439 131.911 470.581 131.26 470.41 131.089C469.96 130.64 502.249 129.483 518.116 129.381H539L534.793 127.447C528.732 124.659 512.687 123.737 475.616 122.37C457.466 121.701 442.252 120.837 441.808 120.45C440.787 119.561 506.445 118.086 510.5 118.897C512.82 119.36 512.481 119.024 509 117.413C501.079 113.745 483.788 112.622 463.655 112.542C445.134 112.469 417.781 111.464 418.367 110.878C418.527 110.718 429.193 110.024 442.069 109.335C454.946 108.647 465.062 104.253 464.549 104.094C456.679 101.645 401.132 99.024 386.116 100.394ZM394 180.281L391 186.462L397.5 190.281C400.752 190.281 400.898 186.359 401.5 181.271C401.838 178.416 401.624 172.389 401.5 172.281C401.375 172.172 396.039 177.317 394 180.281ZM410 180.654C410.312 182.854 410.573 185.472 410.579 186.471C410.588 187.893 416.411 189.322 418.171 188.781C419.409 188.401 420.827 185.93 421 185.779C421.173 185.629 419.9 183.322 418.171 180.654L412 173.781L410 180.654ZM343.184 209.733C348.033 212.986 351.203 218.183 354.778 221.281C383.028 245.767 401.076 280.129 401.5 321.462L399.5 356.781C399.5 356.781 404.5 346.281 406 334.781C407.5 323.281 408.021 315.779 408.055 311.888L408.116 304.814L416.366 304.881C423.121 304.935 425.393 304.534 428.904 302.665C433.746 300.088 436.977 300.779 433.751 285.273C427.417 254.835 406.02 223.737 379.5 206.426L368.5 196.281L351.5 198.781L329 198.281L343.184 209.733ZM414.5 209.781C423.35 216.861 433.793 227.428 439.429 235.007C452.049 251.977 458.624 273.23 461 292.281C461.378 295.306 465.301 298.044 465.691 298.781C466.169 299.685 470.132 295.394 474.956 288.684C478.894 283.207 482.116 278.216 482.116 277.594C482.116 276.971 482.513 276.462 482.998 276.462C483.484 276.462 485.505 282.65 487.489 290.212L491.098 303.962L493 293.781C492.134 275.807 486.071 254.229 475 236.281C469.295 227.032 449.169 207.794 441 202.281C436.731 199.4 436.076 198.601 423 198.281L402.5 199.781L414.5 209.781ZM471.5 210.781C480.835 219.499 490.22 231.402 496.819 242.896C503.385 254.33 506.976 264.723 510.212 278.599C514.406 296.581 517.12 296.261 517.166 284.781C517.19 279.006 517.645 266.825 517.215 264.212C516.785 261.599 516.763 259.462 517.166 259.462C518.249 259.462 525.72 276.989 527.717 284.214C528.667 287.653 530.302 291.48 530.5 291.281C531.212 290.569 530.598 270.092 529 264.212C524.234 246.671 512.227 225.144 498.116 210.781C487.566 200.044 483.474 199.624 475 199.291H463.5L471.5 210.781ZM575.301 239.363C570.487 242.607 566.243 250.766 565.5 256.762C564.628 263.795 566.494 268.872 575.235 283.257C587.723 303.808 591.579 314.912 595.5 337.734C597.884 351.607 598.832 381.515 596.706 397.484C593.635 420.548 584.712 446.434 574.809 461.007C573.393 463.091 572.217 468.823 572.5 469.281C575.683 474.432 591.475 456.068 598.53 434.98C605.329 414.66 606.523 403.232 606.5 374.462C606.483 352.032 606.581 347.61 604.596 337.734C600.769 318.689 594.721 298.687 584.784 282.953C575.388 268.076 571.415 262.323 575.301 254.781C579.469 246.693 583.747 244.219 589.498 249.97C592.613 253.085 592.292 253.765 589.5 256.762C586.957 259.493 586.186 257.404 585.5 254.781C584.835 252.239 579.437 254.589 578.094 257.099C576.646 259.805 582.919 266.6 587.346 266.6C595.695 266.6 601.25 248.034 594.842 242.031C589.91 237.411 580.446 235.895 575.301 239.363ZM225.556 269.04C227.347 269.96 230.707 272.768 233.024 275.281L243.5 281.781L247.667 279.772C249.608 277.624 253.09 274.929 255.406 273.783C258.297 272.351 262.874 268.837 261.5 268.781C260.4 268.736 249.673 268.224 242.41 268.131C229.487 267.966 222.37 267.405 225.556 269.04ZM281.781 284.781C277.77 285.987 279.811 284.935 285.734 287.501C291.102 289.827 301.65 301.632 300.5 302.781C300.199 303.082 299 302.781 296.899 301.645C292.327 299.174 287.773 300.161 283.593 301.907C281.691 302.702 279.01 304.477 277.635 305.852C275.304 308.183 274.946 308.255 272.375 306.914C270.858 306.122 268.814 305.472 267.834 305.468C264.584 305.457 259.085 308.345 256.494 311.425C255.088 313.095 252.966 314.501 251.777 314.548C249.818 314.626 249.85 314.704 252.116 315.382C254.753 316.171 292.395 316.928 330.032 316.949C347.46 316.959 352.544 316.675 352.879 315.671C353.521 313.748 346.632 307.73 342.883 306.94C341.086 306.561 338.491 305.202 337.116 303.92C333.961 300.979 330.016 299.475 325.301 299.417H320.263L323.25 294.434C326.232 291.719 330.619 288.753 333 287.844C335.381 286.934 334.321 287.311 334.321 286.873C334.321 285.691 330.515 288.988 325.407 288.885C319.105 288.759 319.601 290.606 313.5 297.281L308.5 300.781L306 298.746C299.517 289.297 290.209 282.247 281.781 284.781ZM229.116 324.962C229.116 326.239 231.765 326.462 246.96 326.462C268.839 326.462 286.709 325.455 284.923 324.322C284.204 323.866 271.354 323.486 256.366 323.477C232.804 323.464 229.116 323.665 229.116 324.962ZM575 345.281C574.706 346.047 565.578 362.909 560.622 369.492C541.087 395.443 513.647 416.644 484.5 428.305C476.019 431.698 441.082 441.492 433.5 443.431L430 446.281L448.569 444.792C466.984 442.836 486.61 444.429 507.42 434.281C534.837 420.91 566.589 383.199 584.5 356.769C589.126 349.944 582.965 340.465 582.309 339.81C582.064 339.565 575.294 344.515 575 345.281ZM279.271 362.781C274.377 367.078 271.362 385.85 274 390.781C275.665 393.891 281.423 389.999 284.263 384.781C286.948 379.848 285.829 375.021 284.263 374.053C283.192 373.391 292.435 374.657 291 377.281C290.005 379.1 284.024 374.509 284 371.781C283.949 366.012 284.878 365.939 288.721 367.414C289.903 367.867 295.129 370.077 294.637 369.281C293.398 367.276 282.773 359.707 279.271 362.781ZM619 384.181C611.806 391 608.229 397.165 608.25 398.574C608.303 402.048 604.898 425.292 602.616 432.281C601.449 435.856 599.644 444.165 598.085 447.643C596.526 451.12 595.799 453.739 596.47 453.462C597.142 453.184 603.112 452.245 606 451.281C610.809 449.677 612.116 446.839 612.122 444.029C612.125 442.342 612.598 439.162 613.172 436.962C614.508 431.851 630.323 393.462 631.093 393.462C631.411 393.462 635.024 396.194 639.12 399.533C643.217 402.872 656.317 414.329 656.5 413.781C657.108 411.958 645.108 396.07 640.336 386.243L635.616 374.462L619 384.181ZM102.334 382.899C101.968 385.34 102.805 394.248 103 394.781C103.195 395.315 112.7 388.242 116 385.281L121.616 378.486H112.927L103 378.462L102.334 382.899ZM535 379.781C533.625 380.791 518.933 390.235 512.058 393.947C498.072 401.497 497.562 401.851 498.5 403.367C498.948 404.092 504.604 407.203 507.42 405.781C513.195 402.866 526.874 393.797 531.116 390.07C534.994 386.663 538.878 376.932 535 379.781ZM280.5 397.281C277.657 403.947 278.116 414.293 278.116 417.677C278.116 421.44 282.108 429.118 286.276 433.369C292.72 439.941 306.568 442.228 320.5 441.781C326.681 441.582 327.393 436.781 321.5 436.781C316.238 436.781 300.923 435.807 294.5 432.781C289.108 430.24 288.259 429.789 286 425.255C282.796 418.824 283.215 412.021 286 402.281C287.09 398.469 289.691 384.971 289.5 384.781C289.31 384.591 281.622 394.651 280.5 397.281ZM472.5 397.281C468.37 401.411 466.776 409.026 468.5 414.781C471.162 423.666 481.684 426.266 487.5 420.451C494.901 413.049 492.315 395.769 483 394.281C479.706 393.755 475.55 394.231 472.5 397.281ZM479 403.367C477.949 404.633 479.048 403.67 480 408.281C481.612 416.086 481.367 417.592 479 416.841C476.316 415.989 478.5 418.281 478.5 418.281L482.379 417.973C482.379 417.973 487.456 406.785 483 401.976C481.429 400.281 480.906 401.07 479 403.367ZM565.5 401.976C562.404 406.212 524.427 430.63 513 446.281C507.163 450.265 518.432 458.122 519.875 458.122C523.266 458.122 541.979 444.998 550.789 436.441C557.824 429.608 576.051 402.793 579 397.281C584.49 385.447 568.596 397.74 565.5 401.976ZM433.296 405.781C427.906 411.171 428.446 428.124 433.5 433.78C440.779 441.927 457.35 427.116 455.5 414.781C454.118 405.564 438.981 400.097 433.296 405.781ZM441.41 413.281C441.066 414.362 441.261 417.82 441.842 420.964C443.219 428.415 442.665 428.934 440.059 428.281C437.828 427.723 441.41 428.281 441.41 428.281C441.41 428.281 446.53 427.375 446.53 419.16C446.53 413.217 445.693 412.781 441.525 412.781C439.559 412.781 441.839 411.929 441.41 413.281ZM402.5 412.781C396.704 414.981 392.179 428.16 394.173 435.281C396.501 443.595 407.186 445.745 412.595 440.099C417.488 434.992 419.623 420.032 414.426 415.72C412.686 414.275 404.384 412.067 402.5 412.781ZM286.5 413.281C286.5 415.523 289.424 426.44 291.5 427.781C295.371 430.283 310.237 435.39 314.616 435.314L322 430.281L309.5 425.255C300.683 422.698 297.327 422.817 294 418.781C292.369 416.802 286.5 412.863 286.5 413.281ZM405.238 421.781C402.943 422.647 404.56 420.897 405.238 427.781C405.744 432.913 405.866 434.746 405 435.281C403.238 436.37 404.329 435.495 407 435.495C410.2 434.281 412.55 432.676 409.5 426.281C407.534 422.157 408.402 420.588 405.238 421.781ZM366.083 421.996C362.354 424.88 360.739 429.199 361.047 435.464C361.138 437.315 364.819 440.281 367.5 440.281H370.76L372.061 432.166C372.051 425.938 369.179 430.779 372.061 430.779C375.72 430.779 378.404 434.208 379.5 440.281L381.759 439.962L383 434.281C384.673 427.107 380.02 419.005 374.26 419.063C372.521 419.08 366.949 421.326 366.083 421.996ZM335.059 425.962C332.328 428.11 329.545 434.977 329.545 437.93C329.545 438.959 333.082 442.61 335.059 442.61C337.793 442.61 338.023 442.317 338.309 438.462C338.89 430.621 343.766 430.618 347.784 438.462C349.62 442.046 351.97 441.632 352.5 439.962C353.859 435.682 348.328 423.034 343.95 423.034C343.047 423.034 336.575 424.77 335.059 425.962ZM544.147 456.788C540.721 460.368 550.769 467.043 553.074 465.458C556.805 462.894 570.182 442.195 568.883 442.195C568.351 442.195 546.599 454.225 544.147 456.788ZM448.116 484.966C453.891 488.077 460.641 491.906 463.116 493.475C465.591 495.044 477.803 497.725 479.331 498.303C481.948 499.292 482.044 499.233 481 497.281C480.39 496.142 482.248 497.533 482.5 497.281C484.035 495.746 521.46 502.599 540.186 507.843C545.951 509.458 551.483 505.213 551.616 505.079C551.75 504.945 538.474 496.325 529 491.584C501.732 477.939 486.83 473.945 460.275 473.162L432 474.781L448.116 484.966ZM557.5 509.781C563.218 512.176 592.026 522.169 601 523.781C614.473 526.203 636.112 525.574 651.116 523.082L663.116 521.089V516.402C657.891 515.772 644.391 514.1 633.116 512.686C610.895 509.899 552.403 507.646 557.5 509.781Z" fill="#5F8A8E"/>
<path fill-rule="evenodd" clip-rule="evenodd" d="M388.304 82.2824C354.367 84.7934 323.167 91.7834 292.461 103.754C232.428 127.16 180.877 167.739 144.22 220.444C117.575 258.755 99.194 301.603 90.026 346.774C84.162 375.668 82.335 400.13 83.415 435.274L83.83 448.774L63.415 449.972C52.187 450.63 39.175 451.54 34.5 451.994L26 452.819L37 454.613C43.05 455.599 62.175 458.954 79.5 462.068C110.388 467.621 111.35 467.729 129 467.661C150.108 467.579 165.701 465.045 187.177 458.206C207.28 451.805 215.046 452.414 237.168 462.127C241.11 463.858 245.047 465.274 245.918 465.274C249.427 465.274 247.15 467.063 241.441 468.792C235.523 470.584 235.26 470.581 230.191 468.7C226.283 467.25 222.529 466.79 215 466.837C206.08 466.893 204.197 467.242 197.564 470.068C189.711 473.414 187.293 473.691 192.431 470.656C198.636 466.99 195.953 467.144 174.887 471.663C150.765 476.837 147.883 476.994 86.5 476.452C74.675 476.348 50.375 476.603 32.5 477.018L0 477.774L18 481.143C112.732 498.876 140.642 500.924 174.797 492.654C180.375 491.304 205.258 483.478 230.094 475.265C313.267 447.758 322.271 445.816 363.597 446.481C385.787 446.838 389.751 447.18 407.308 450.244C426.528 453.598 426.668 453.607 437.808 452.245C454.01 450.265 468.969 450.591 481.5 453.198C487.275 454.399 502.8 458.935 516 463.276C556.428 476.574 564.997 478.226 599 479.283C621.172 479.972 625.125 480.354 633.941 482.658C647.962 486.322 648.128 487.274 634.748 487.274C628.615 487.274 615.93 487.972 606.559 488.826C591.203 490.225 588.359 490.226 577.76 488.84C561.842 486.759 546.43 482.843 518.5 473.782C483.877 462.55 479.829 461.964 435 461.687C414.65 461.562 393.95 460.971 389 460.375C359.773 456.854 329.613 461.276 298.324 473.669C285.946 478.572 285.82 478.019 297.737 471.108C306.995 465.741 306.132 465.019 293.812 467.826C273.627 472.424 253.771 479.87 225.732 493.355C215.685 498.188 207.691 501.774 207.968 501.326C208.245 500.878 210.718 498.797 213.464 496.704C216.21 494.61 218.285 492.726 218.076 492.517C217.868 492.308 209.215 494.387 198.849 497.136C164.32 506.292 153.138 508.012 119.906 509.273C84.955 510.599 70.317 512.983 37 522.774C27.1 525.683 18.1 528.253 17 528.485C13.416 529.24 134.756 530.514 145.022 529.829C180.607 527.454 211.297 522.567 271.321 509.717C301.248 503.311 315.725 500.775 331.934 499.1C343.694 497.885 343.818 497.846 340.434 496.428C338.545 495.637 331.828 494.716 325.5 494.382L314 493.774L322.5 491.04C362.22 478.264 406.087 481.96 444.611 501.33C449.064 503.569 452.548 505.543 452.353 505.718C452.159 505.893 448.4 505.404 444 504.633C430.371 502.243 400.866 501.754 387.5 503.696C368.054 506.522 347.42 512.39 327.62 520.724C324.287 522.126 321.209 523.263 320.78 523.25C320.351 523.236 324.489 520.311 329.976 516.75C337.457 511.893 339.332 510.276 337.476 510.281C332.149 510.296 316.379 514.889 277.5 527.749C255.225 535.117 230.7 542.996 223 545.258C215.3 547.521 206.75 550.123 204 551.041L199 552.711L204 553.405C210.315 554.281 512.941 554.266 517 553.389C523.838 551.912 458.545 540.46 424.232 537.117C417.21 536.433 412.035 535.565 412.732 535.189C417.993 532.349 469.524 528.639 490.5 529.59C505.13 530.253 504.926 529.973 486.194 523.678L473 519.243L483.5 519.793C499.047 520.607 505.923 521.762 540 529.289C557.05 533.056 574.6 536.73 579 537.455C588.179 538.968 642.647 539.14 669 537.739C686.348 536.817 686.407 536.852 662.5 533.88C648.672 532.16 623.429 526.942 633 527.781C654.621 529.677 686.155 530.482 717 529.925C736.25 529.578 763.475 529.266 777.5 529.232L803 529.169L785 523.749C751.655 513.709 734.163 510.705 701 509.324C688.86 508.818 676.625 507.749 672 506.79C664.597 505.255 638.5 497.443 638.5 496.762C638.5 496.597 650.987 496.705 666.25 497.003C684.322 497.356 698.36 497.127 706.5 496.348C720.109 495.044 774.125 486.189 800.5 480.937L817 477.651L780.5 476.713C736.839 475.59 729.266 475.588 706.5 476.697C686.47 477.672 677.551 476.829 659.256 472.228C645.655 468.807 642.619 468.508 644.5 470.774C645.551 472.041 645.142 472.019 641.873 470.636C629.221 465.284 618.413 464.882 606.387 469.316C599.717 471.775 596.888 472.301 591.605 472.066L585.071 471.774L591.536 467.67C607.904 457.279 615.754 454.274 626.525 454.274C632.29 454.274 636.117 455.119 647.026 458.801C668.301 465.981 677.457 467.66 695 467.598C708.538 467.55 712.291 467.103 733.5 463.017C746.425 460.527 764.542 457.246 773.761 455.726C782.979 454.206 790.361 452.802 790.166 452.606C789.578 452.019 748.595 449.291 740.214 449.282L732.428 449.274L733.214 440.024C734.388 426.202 734.053 390.224 732.638 378.274C724.634 310.678 698.244 247.961 657.107 198.774C649.245 189.373 627.905 167.87 618 159.368C567.391 115.929 508.821 90.4154 443.477 83.3464C429.448 81.8284 401.677 81.2934 388.304 82.2824ZM397.5 102.881C381.94 103.875 365.945 105.617 356.052 107.395C343.1 109.724 319.358 116.345 311.5 119.819C308.475 121.156 302.85 123.201 299 124.363C291.402 126.656 255.965 144.182 251.653 147.779C250.194 148.997 247.425 150.791 245.5 151.766C239.215 154.952 217.464 170.895 210 177.787C198.908 188.029 181.075 206.153 176.067 212.274C173.141 215.849 167.717 223.263 164.013 228.749C160.309 234.236 156.401 239.861 155.328 241.249C148.762 249.745 133.321 279.247 126.464 296.398C117.277 319.375 107.92 357.065 106.013 378.774C105.674 382.624 105.167 386.866 104.885 388.201L104.373 390.628L107.37 388.201C134.359 366.341 155.252 347.223 174.447 326.819C184.043 316.619 192.238 308.274 192.657 308.274C193.077 308.274 195.568 310.637 198.193 313.524C211.049 327.664 227.243 343.421 229.489 343.976C230.87 344.318 236.95 349.3 243 355.048C249.05 360.796 255.653 366.686 257.673 368.137C260.916 370.466 261.267 371.124 260.673 373.774C260.303 375.424 260 380.018 260 383.983V391.192L254.054 384.483C250.783 380.793 242.63 372.195 235.935 365.375L223.762 352.976L221.616 359.375C220.435 362.895 219.11 366.341 218.67 367.033C218.147 367.858 213.699 361.137 205.787 347.567C199.141 336.168 193.282 326.701 192.767 326.53C191.793 326.205 174.934 355.349 167.356 370.459C164.96 375.236 162.275 378.747 162 378.781C161.725 378.814 160.522 376.408 158.716 372.914C152.733 361.343 155.913 360.032 128.387 385.426L104 407.925L103.722 421.599C103.569 429.12 103.699 435.274 104.01 435.274C104.717 435.274 121.168 424.272 128.328 419.011C131.258 416.858 133.836 415.276 134.056 415.497C134.276 415.717 134.019 418.569 133.484 421.836C131.932 431.313 132.028 431.697 135.25 428.916C146.781 418.963 170.879 399.274 171.53 399.274C171.972 399.274 175.239 402.986 178.789 407.524C191.026 423.164 207.08 436.986 221.481 444.28C232.316 449.769 239.339 451.419 255.495 452.271C264.017 452.721 271.306 452.894 271.691 452.656C272.077 452.417 271.741 450.375 270.945 448.118C265.915 433.861 267.359 415.765 274.936 398.104C275.468 396.865 275.078 396.348 273.427 396.104C269.665 395.547 267.139 390.968 266.688 383.892C265.877 371.154 271.332 360.46 281.072 355.695C294.368 349.19 305.514 357.196 305.49 373.236C305.483 378.127 304.839 381.151 302.936 385.24C301.537 388.247 300.626 391.622 300.913 392.74C302.304 398.161 314.811 410.168 326.301 417.114C331.563 420.295 331.636 420.307 336.086 418.796C338.552 417.959 341.792 417.284 343.285 417.296C346.385 417.321 353.898 420.491 354.97 422.226C355.443 422.99 357.489 421.683 360.959 418.401C368.662 411.116 376.826 410.234 384.238 415.888C387.684 418.516 387.831 418.54 389.153 416.686C392.03 412.648 396.918 408.207 399.08 407.665C401.086 407.161 401.374 406.376 401.669 400.599C401.851 397.024 401.862 393.963 401.693 393.797C401.525 393.63 397.475 394.591 392.693 395.931C374.318 401.08 344.405 408.512 343.937 408.044C343.667 407.775 345.099 405.129 347.117 402.164C352.568 394.16 360.038 377.983 362.996 367.774C371.208 339.438 370.083 306.232 359.965 278.274C348.407 246.34 324.05 219.12 292.032 202.354C287.695 200.083 283.579 197.755 282.887 197.18C282.007 196.45 280.988 196.478 279.505 197.271C276.567 198.844 271.742 197.572 269.883 194.736C265.951 188.735 273.975 182.416 280.09 186.699C281.416 187.628 282.625 187.807 283.562 187.214C284.375 186.7 306.526 186.297 334.5 186.287L384 186.27L392.725 173.522L401.449 160.774L401.475 143.083C401.49 132.339 401.107 125.149 400.5 124.774C398.609 123.605 399.401 118.457 401.723 116.831C406.762 113.301 412.5 116.465 412.5 122.774C412.5 125.444 412.915 126.272 414.25 126.266C415.212 126.261 419.007 127.028 422.682 127.97C428.981 129.584 429.674 129.584 434.77 127.978C440.274 126.243 459.559 125.497 459.443 127.024C459.412 127.436 456.709 129.95 453.436 132.61L447.486 137.445L449.45 140.204C450.53 141.721 453.421 145.194 455.874 147.922L460.333 152.882L451.349 152.452C444.073 152.105 440.931 152.448 434.826 154.261C427.385 156.47 418.693 156.7 414.25 154.806C412.752 154.167 412.5 154.631 412.5 158.026C412.5 161.307 413.923 164.167 420.75 174.6L429 187.209L444.5 187.425C453.025 187.544 464.5 187.742 470 187.866C475.5 187.99 487.983 188.204 497.74 188.342C513.356 188.564 515.674 188.809 517.108 190.394C521.029 194.726 515.59 200.547 509.578 198.451C507.885 197.861 506.5 197.634 506.5 197.947C506.5 198.26 509.284 201.384 512.687 204.889C532.648 225.448 544.36 249.855 547.59 277.624C551.338 309.846 540.183 348.471 520.306 372.093L517.65 375.25L499.325 375.684C477.064 376.213 460.13 378.627 431.25 385.391L422.5 387.441V399.357C422.5 406.877 422.881 411.274 423.531 411.274C424.099 411.274 424.84 410.486 425.179 409.524C426.476 405.842 430.779 401.172 434.732 399.155C440.29 396.32 447.831 396.904 453.418 400.601C455.64 402.071 457.922 403.274 458.491 403.274C459.06 403.274 461.124 400.774 463.078 397.719C470.33 386.384 482.722 383.311 492.658 390.386C495.464 392.385 495.629 392.39 500.186 390.65C507.06 388.025 527.813 375.903 536.059 369.697C563.833 348.794 578.579 317.756 570.976 296.207C570.276 294.223 567.373 287.345 564.524 280.923C558.396 267.11 557.123 258.517 559.828 249.224C564.854 231.961 583.784 224.066 597.834 233.372C607.057 239.481 609.828 252.346 603.965 261.836C599.872 268.462 594.67 271.418 587.749 271.052C584.86 270.899 582.498 270.86 582.499 270.966C582.499 271.072 585.054 275.347 588.176 280.466C603.565 305.705 611.996 333.692 613.197 363.524C613.523 371.637 614.02 378.274 614.301 378.274C615.019 378.274 620.911 373.73 628.22 367.541C631.641 364.644 635.01 362.274 635.706 362.274C636.403 362.274 642.912 368.201 650.17 375.444L663.368 388.614L668.891 384.444C671.929 382.151 674.776 380.274 675.219 380.274C675.892 380.274 690.987 394.182 709.25 411.63L713.5 415.69V405.982C713.5 397.409 713.295 396.272 711.75 396.259C710.366 396.247 710.288 396.061 711.378 395.37C712.864 394.429 712.816 393.512 709.905 367.543C707.669 347.598 698.676 314.419 690.168 294.727C682.928 277.969 678.681 268.647 676.749 265.274C675.647 263.349 673.146 258.974 671.193 255.553C660.794 237.339 644.251 215.101 630.07 200.274C619.898 189.639 604.576 175.073 600.761 172.413C598.98 171.17 595.157 168.135 592.266 165.667C577.189 152.798 536.409 129.402 520.5 124.495C516.925 123.393 509.95 120.846 505 118.836C496.333 115.316 491.753 114.002 470 108.796C454.32 105.042 414.514 101.795 397.5 102.881ZM396.5 179.774C394.202 182.884 392.507 185.615 392.734 185.841C392.96 186.068 394.484 186.521 396.119 186.848C399.086 187.441 399.093 187.431 400.164 181.108C400.754 177.624 401.111 174.627 400.957 174.446C400.804 174.266 398.798 176.664 396.5 179.774ZM412.523 179.442C412.491 185.899 413.208 187.274 416.607 187.274C418.198 187.274 419.49 186.936 419.477 186.524C419.465 186.112 417.9 183.299 416 180.274L412.545 174.774L412.523 179.442ZM332.563 199.615C332.873 199.955 335.322 201.401 338.004 202.827C352.601 210.589 370.842 227.55 381.083 242.885C403.968 277.154 410.722 326.913 397.407 363.156C396.319 366.115 395.62 368.728 395.853 368.96C396.709 369.816 426.584 355.986 427.474 354.322C427.981 353.375 429.384 347.915 430.591 342.187C433.522 328.288 433.816 302.088 431.188 288.999C425.146 258.906 407.931 230.501 385.043 212.86C368.384 200.02 369.254 200.343 349.397 199.625C339.829 199.279 332.253 199.275 332.563 199.615ZM406.499 200.28C406.499 200.558 407.744 201.337 409.265 202.01C410.786 202.683 416.217 206.882 421.332 211.342C456.625 242.105 473.11 290.679 463.616 335.929C462.559 340.965 461.401 346.012 461.041 347.145C460.388 349.203 460.393 349.203 465.694 347.376C468.612 346.37 474.421 344.121 478.603 342.378L486.206 339.21L487.952 331.492C490.294 321.142 491.196 293.915 489.541 283.539C486.889 266.918 478.287 246.327 467.776 231.443C461.959 223.207 447.819 209.028 440.481 204.074L435 200.374L420.749 200.074C412.91 199.909 406.498 200.002 406.499 200.28ZM475.728 209.024C497.333 230.098 510.045 253.947 514.975 282.655C517.047 294.719 516.699 307.114 513.907 320.774L513.294 323.774L517.95 319.274C520.512 316.799 524.022 311.906 525.752 308.401C528.376 303.082 528.966 300.565 529.318 293.188C530.638 265.598 518.893 237.165 496.564 213.89C484.742 201.567 482.596 200.274 473.979 200.274H466.758L475.728 209.024ZM575.398 242.532C570.906 245.517 567.5 252.382 567.5 258.451C567.5 265.139 569.857 271.322 576.176 281.216C592.146 306.217 598.969 328.966 600.185 361.274C601.596 398.755 592.684 436.968 577.145 460.058C573.514 465.455 573.501 466.274 577.048 466.274C584.002 466.274 598.086 434.595 602.431 409.177C605.157 393.234 605.997 372.545 604.558 356.826C601.908 327.872 595.356 307.555 581.015 283.818C574.032 272.261 572.305 268.217 571.753 262.131C570.859 252.27 575.743 245.274 583.521 245.274C590.73 245.274 595.602 252.831 591.544 257.721C589.717 259.923 586.415 259.667 585.79 257.274C585.141 254.795 584.28 254.754 582.155 257.103C579.938 259.553 580.07 260.859 582.723 262.717C586.212 265.162 589.374 264.6 593.1 260.874C596.047 257.927 596.496 256.828 596.467 252.624C596.432 247.559 595.098 245.172 590.527 241.993C586.917 239.483 579.594 239.744 575.398 242.532ZM282.618 249.18C281.525 249.872 281.662 250.191 283.276 250.703C285.223 251.321 291.568 257.742 294.28 261.84C295.132 263.126 295.739 263.376 296.093 262.586C297.641 259.13 303.832 252.295 306.473 251.126C310.175 249.487 310.371 248.274 306.934 248.274C303.945 248.274 300.911 249.694 297.75 252.573L295.5 254.623L293.25 252.573C288.893 248.605 285.324 247.466 282.618 249.18ZM220.574 268.151C216.774 269.213 217.014 271.045 221.181 272.779C226.436 274.967 232.777 281.403 238.171 290.024C240.666 294.012 242.839 297.274 243 297.274C243.161 297.274 245.333 294.012 247.826 290.024C253.029 281.703 258.096 276.481 264.437 272.904L268.874 270.402L266.229 269.196C261.936 267.241 255.317 269.675 248.847 275.588L243.372 280.591L239.13 275.971C235.079 271.558 227.695 267.23 224.5 267.396C223.675 267.438 221.908 267.778 220.574 268.151ZM277.593 284.196C276.547 284.858 277.702 285.853 282.093 288.075C289.52 291.832 296.714 298.124 299.169 303.012C303.343 311.317 306.773 316.274 308.345 316.272C309.352 316.27 311.546 313.52 313.946 309.253C318.78 300.659 328.106 291.073 334.587 288.037C337.244 286.792 339.436 285.445 339.459 285.043C339.527 283.828 334.619 282.995 330.581 283.536C323.472 284.49 315.283 289.976 310.076 297.274C308.683 299.226 308.177 299.445 307.764 298.274C306.803 295.547 297.396 287.13 293.161 285.207C288.815 283.234 280.015 282.662 277.593 284.196ZM577.994 346.928C577.007 349.513 573.513 355.485 570.229 360.201C550.64 388.326 527.621 408.671 499.343 422.853C486.691 429.198 457.205 439.392 441.777 442.754C427.591 445.845 431.221 445.853 452.072 442.776C461.383 441.402 471.493 440.277 474.54 440.276C482.518 440.273 490.454 437.931 503.186 431.821C522.579 422.516 536.686 412.346 549.836 398.191C563.893 383.06 574.521 365.511 578.573 350.739C580.964 342.024 580.652 339.969 577.994 346.928ZM280.709 365.84C275.233 369.676 272.225 383.856 276.071 387.703C276.936 388.567 277.846 389.274 278.093 389.274C279.349 389.274 284.5 379.515 284.5 377.137C284.5 372.573 280.884 372.232 278.606 376.582C277.559 378.582 277.508 378.512 278.024 375.774C278.652 372.448 281.207 368.492 283.775 366.872C284.967 366.12 286.392 366.161 288.725 367.014L292 368.211L289.639 366.242C286.792 363.869 283.721 363.73 280.709 365.84ZM623.653 386.62L613.343 396.966L611.42 408.37C609.061 422.36 605.514 435.082 601.509 443.915C599.844 447.586 598.665 450.773 598.889 450.996C599.112 451.22 603.279 449.938 608.148 448.147C616.164 445.199 618.039 444.893 628 444.911C637.934 444.928 639.872 445.249 648 448.23C656.459 451.333 657.975 451.561 673.228 452.019C682.153 452.288 691.418 452.213 693.817 451.854L698.179 451.2L689.734 442.987C680.092 433.609 673.608 425.027 669.998 416.866C666.731 409.478 666.739 407.274 670.033 407.274C672.661 407.274 680.922 411.064 685.808 414.511C687.352 415.601 688.789 416.319 689.001 416.106C689.213 415.894 686.152 410.904 682.199 405.017L675.011 394.313L668.219 401.044C664.484 404.745 660.432 409.233 659.214 411.017C657.996 412.801 656.759 414.263 656.464 414.267C655.429 414.28 644.713 395.679 640.192 386.024C637.681 380.661 635.253 376.274 634.796 376.274C634.338 376.274 629.324 380.93 623.653 386.62ZM528.618 385.773C525.658 387.61 518.351 391.737 512.381 394.943C504.963 398.928 501.522 401.328 501.513 402.524C501.506 403.486 502.073 404.274 502.774 404.274C506.242 404.274 527.867 390.008 532.905 384.396C535.346 381.677 535.082 381.761 528.618 385.773ZM284.45 394.024C278.921 406.183 277.372 412.4 277.235 422.969C277.139 430.468 277.51 433.531 278.814 435.992C280.982 440.086 285.142 443.953 288.715 445.199C292.177 446.406 292.406 445.008 289 443.456C287.625 442.829 286.5 441.865 286.5 441.312C286.5 440.759 288.057 441.049 289.961 441.957C293.088 443.448 294.822 443.482 307.961 442.312C315.957 441.599 322.5 440.705 322.5 440.325C322.5 439.945 318.447 439.094 313.493 438.435C304.377 437.221 293.651 433.913 289.044 430.895C285.853 428.804 282.637 422.55 281.868 416.943C281.296 412.767 282.955 404.561 286.907 392.024C287.731 389.411 288.205 387.274 287.962 387.274C287.719 387.274 286.139 390.312 284.45 394.024ZM476.294 396.129C465.46 401.54 468.411 422.674 480 422.674C490.402 422.674 494.528 404.688 485.852 397.163C482.976 394.668 479.888 394.334 476.294 396.129ZM569.465 403.942C559.8 417.503 540.431 435.452 523.25 446.77C520.087 448.853 517.5 450.943 517.5 451.416C517.5 453.506 521.323 451.806 530.746 445.524C547.764 434.179 563.67 417.587 572.448 402.024C574.231 398.861 575.52 396.274 575.31 396.274C575.101 396.274 572.471 399.725 569.465 403.942ZM477.616 402.057C476.983 403.241 477.117 405.799 478.016 409.668C479.304 415.208 479.275 415.52 477.414 416.007C475.88 416.408 475.705 416.816 476.601 417.896C478.401 420.064 482.353 419.512 485.166 416.699C487.414 414.451 487.68 413.5 487.266 409.189C487 406.419 486.002 403.381 484.991 402.264C482.754 399.792 478.886 399.684 477.616 402.057ZM437.115 407.362C431.688 411.631 429.944 419.614 432.894 426.675C435.694 433.376 442.938 435.378 447.864 430.812C456.518 422.792 452.279 405.274 441.685 405.274C440.631 405.274 438.575 406.214 437.115 407.362ZM439.844 411.82C439.518 412.67 439.565 416.556 439.949 420.455C440.561 426.667 440.453 427.47 439.074 426.941C438.208 426.609 437.5 426.725 437.5 427.198C437.5 428.305 440.034 429.274 442.927 429.274C446.179 429.274 448.662 426.02 449.225 421.019C449.637 417.362 449.291 416.179 447.018 413.478C444.139 410.056 440.816 409.288 439.844 411.82ZM288.034 416.845C289.873 424.98 298.585 430.174 311.678 430.941C317.712 431.295 319.588 431.137 318.5 430.367C317.675 429.783 316.011 429.298 314.802 429.289C313.593 429.281 309.014 428.14 304.626 426.754C297.653 424.551 296.066 423.585 292.011 419.075C287.713 414.294 287.42 414.13 288.034 416.845ZM400.853 415.739C397.98 417.751 395.5 423.328 395.5 427.774C395.5 435.017 400.54 441.274 406.374 441.274C409.647 441.274 414.127 436.678 415.446 431.967C418.607 420.676 409.022 410.017 400.853 415.739ZM403.563 420.214C402.341 420.987 402.313 422.136 403.378 427.915C404.517 434.099 404.472 434.821 402.874 435.99C401.328 437.121 401.559 437.274 404.809 437.274C410.166 437.274 412.5 434.542 412.5 428.274C412.5 421.17 408.192 417.285 403.563 420.214ZM368.014 422.442C364.829 424.947 362.5 429.907 362.5 434.183C362.5 437.585 362.879 437.942 367 438.423L370 438.774L370.016 433.274C370.025 430.249 370.389 427.212 370.825 426.524C373.134 422.884 378.504 428.127 379.25 434.75C379.899 440.508 381.883 440.222 382.314 434.308C382.694 429.101 381.092 424.885 377.73 422.24C374.485 419.688 371.434 419.751 368.014 422.442ZM337.328 426.311C334.657 427.869 331.5 433.736 331.5 437.142C331.5 439.955 331.805 440.274 334.5 440.274C337.223 440.274 337.5 439.971 337.5 436.997C337.5 428.792 343.37 427.464 346.669 434.923C348.957 440.095 350.5 440.527 350.5 435.997C350.5 428.417 343.075 422.957 337.328 426.311ZM556 454.274C551.626 458.674 548.499 462.274 549.052 462.274C550.009 462.274 560.658 451.721 563.432 448.024C566.047 444.539 563.799 446.428 556 454.274ZM148 449.009C145.8 449.228 143.572 449.828 143.05 450.341C142.461 450.919 147.88 451.274 157.3 451.274C171.595 451.274 176.463 450.317 169.375 448.899C166.145 448.253 155.009 448.31 148 449.009ZM451.001 482.121C457.051 485.318 463.859 489.107 466.129 490.54C470.896 493.549 477.5 496.46 477.5 495.552C477.5 495.211 476.712 494.043 475.75 492.957C474.019 491.003 474.089 490.989 482.421 491.666C492.858 492.513 515.933 497.118 532.5 501.66C539.375 503.544 545.137 504.954 545.304 504.793C545.94 504.179 516.597 489.365 508 485.961C489.894 478.79 476.175 476.315 454.5 476.31L440 476.307L451.001 482.121ZM564.543 511.238C565.392 511.735 571.467 513.773 578.043 515.767C603.633 523.525 624.665 525.084 649.387 521.056C662.63 518.898 662.864 518.817 658 518.077C644.417 516.013 612.658 512.164 602 511.29C586.738 510.038 562.436 510.005 564.543 511.238Z" fill="#1C3244"/>
<path d="M19.3887 347.97L23.4168 329.853L45.5199 324.801L27.5977 311.048L31.8063 292.118L33.9647 296.859L71.5744 305.221L67.8268 296.127L75.2329 303.215L70.2742 325.519L68.4353 319.34L34.5741 311.812L63.4634 334.036L27.7194 342.348L61.6431 349.891L57.8954 340.796L65.3016 347.885L62.7319 359.443L60.6291 354.451L23.0194 346.089L26.767 355.184L19.3887 347.97Z" fill="#1C3244"/>
<path d="M49.7478 254.053L45.0418 265.957L63.6113 273.298L68.5997 266.599L49.7478 254.053ZM35.4859 280.554L52.0979 238.534L79.4982 257.832L67.0039 274.639L80.4549 279.957L80.6196 279.54L78.4063 269.994L84.6072 278.157L76.0424 299.822L75.1967 293.431L39.367 279.267L41.6398 288.836L35.4859 280.554Z" fill="#1C3244"/>
<path d="M55.6118 231.525L65.5297 212.734L66.3614 217.877L100.435 235.861L99.2179 226.1L104.493 234.891L93.828 255.097L93.6834 248.652L59.61 230.669L60.8269 240.429L55.6118 231.525ZM52.2443 215.419L56.6356 207.099C59.5458 211.457 59.912 216.934 57.5521 221.405C54.8037 226.612 50.348 228.747 46.3294 226.626C43.0466 224.894 41.8674 221.232 43.5702 218.006C45.1833 214.949 48.6989 213.91 52.2443 215.419Z" fill="#1C3244"/>
<path d="M83.5275 185.617L83.748 190.822L103.138 204.191L93.4878 163.955L131.161 189.93L131.102 180.094L135.233 189.55L122.336 208.255L122.951 201.838L103.35 188.324L113.211 228.705L75.5378 202.73L75.5972 212.566L71.4665 203.111L83.5275 185.617ZM79.9722 172.283L85.3125 164.538C87.6894 169.208 87.4085 174.689 84.5386 178.852C81.1964 183.699 76.5203 185.295 72.7793 182.716C69.7232 180.609 68.9833 176.834 71.054 173.83C73.0158 170.985 76.6292 170.367 79.9722 172.283Z" fill="#1C3244"/>
<path d="M181.569 84.8322L225.372 57.8319L223.476 62.6843L243.693 95.4821L247.602 86.4564L247.681 96.7077L228.231 108.697L231.38 103.072L211.164 70.274L197.761 78.5353L217.978 111.333L221.887 102.307L221.966 112.559L202.516 124.548L205.665 118.923L185.448 86.1249L181.539 95.1506L181.569 84.8322Z" fill="#1C3244"/>
<path d="M272.906 85.2164L262.73 77.7082L274.707 81.0132L256.042 62.3319L254.457 63.0212L255.281 89.4633L259.76 90.9349L250.546 94.943L251.668 91.1048L250.3 49.6146L247.718 50.7379L242.743 72.5137L238.016 51.5383L263.31 40.5353L259.279 45.7086L288.674 74.9372L295.266 75.4898L272.906 85.2164Z" fill="#1C3244"/>
<path d="M295.777 60.381L306.943 57.0668L298.65 46.4434L296.932 46.9533L295.777 60.381ZM313.038 71.0798L304.223 62.7475L314.907 67.2539L309.001 59.7272L295.442 63.7515L294.599 73.2814L298.866 75.2862L289.233 78.1452L290.813 74.4718L294.496 33.1227L291.797 33.9239L284.213 54.934L282.069 33.5398L308.513 25.6913L303.884 30.3366L329.51 62.92L335.985 64.2693L313.038 71.0798Z" fill="#1C3244"/>
<path d="M356.079 17.0535L377.101 13.9667L373.441 17.6738L379.038 55.793L386.198 49.0493L382.216 58.496L359.611 61.8152L364.727 57.8943L362.031 39.5312L346.454 41.8183L349.15 60.1815L356.311 53.4377L352.329 62.8844L329.723 66.2036L334.84 62.2827L329.243 24.1634L322.083 30.9071L326.191 21.4419L347.214 18.3551L343.553 22.0622L345.999 38.7156L361.576 36.4284L359.13 19.775L351.97 26.5187L356.079 17.0535Z" fill="#1C3244"/>
<path d="M414.113 13.0125L431.521 12.8968L427.381 16.0604L407.136 60.996L427.71 46.2029L425.33 63.7551L396.348 74.892L405.893 47.3719L392.224 51.4309L386.998 16.3288L378.972 22.0143L384.354 13.2104L405.025 13.0729L400.886 16.2365L403.698 44.4425L407.338 43.3302L416.758 16.131L408.923 21.8152L414.113 13.0125Z" fill="#1C3244"/>
<path d="M457.515 16.5351L452.983 19.1037L449.922 42.4559L481.336 15.5268L475.388 60.8986L484.116 56.3626L477.583 64.3491L455.055 61.3959L461.047 59.0186L464.142 35.4125L432.694 62.5955L438.642 17.2237L429.914 21.7597L436.448 13.7732L457.515 16.5351ZM467.764 7.29275L477.092 8.51562C474.018 12.7601 469.011 15.0084 463.998 14.3512C458.16 13.5859 454.608 10.1511 455.199 5.64562C455.682 1.9651 458.704 -0.414155 462.321 0.0600196C465.748 0.509238 467.945 3.44373 467.764 7.29275Z" fill="#1C3244"/>
<path d="M594.381 79.2491L573.502 95.4955L591.776 106.212L595.871 80.1232L594.381 79.2491ZM597.808 113.384L573.296 99.0101L565.164 101.364L562.24 88.8911L570.079 93.4883L602.763 67.9908L599.396 66.016L578.87 74.8278L593.032 58.6488L617.765 73.1527L611.21 72.9441L604.915 113.917L612.037 118.093L599.724 121.63L597.808 113.384Z" fill="#1C3244"/>
<path d="M633.33 83.034L650.448 95.6221L645.238 95.684L622.413 126.723L632.246 126.963L622.772 130.88L604.365 117.343L610.76 118.154L633.586 87.1149L623.753 86.8747L633.33 83.034ZM649.757 82.0856L657.336 87.6593C652.595 89.8929 647.125 89.4452 643.052 86.4498C638.309 82.9615 636.856 78.239 639.548 74.5782C641.747 71.5878 645.543 70.9632 648.482 73.1245C651.266 75.1719 651.774 78.8025 649.757 82.0856Z" fill="#1C3244"/>
<path d="M674.607 117.383L669.425 116.839L653.361 134.061L694.576 130.409L663.364 163.871L673.102 165.253L663.143 167.954L646.529 152.457L652.787 154.005L669.026 136.595L627.636 140.435L658.848 106.973L649.11 105.591L659.069 102.89L674.607 117.383ZM688.318 115.819L695.198 122.236C690.229 123.903 684.848 122.823 681.151 119.374C676.845 115.358 675.952 110.498 679.051 107.176C681.583 104.461 685.426 104.282 688.094 106.77C690.621 109.128 690.703 112.793 688.318 115.819Z" fill="#1C3244"/>
<path d="M728.687 261.383L734.024 273.438L749.274 261.088L744.85 255.837L768.917 257.081L763.917 245.786L728.687 261.383ZM737.271 288.519L717.685 244.276L722.832 248.157L758.062 232.561L749.648 227.467L759.867 228.892L777.226 268.101L751.519 259.044L760.62 269.643L737.271 288.519Z" fill="#1C3244"/>
<path d="M780.765 277.824L787.178 298.081L782.932 295.061L746.201 306.689L754.004 312.677L744.042 310.259L737.146 288.476L741.836 292.899L778.567 281.272L770.764 275.283L780.765 277.824ZM794.596 286.737L797.435 295.707C792.289 294.718 788.133 291.133 786.607 286.312C784.831 280.699 786.44 276.027 790.772 274.656C794.311 273.536 797.746 275.268 798.847 278.746C799.89 282.041 798.161 285.273 794.596 286.737Z" fill="#1C3244"/>
<path d="M792.3 338.841L789.78 326.291L770.202 330.223L769.657 338.558L792.3 338.841ZM789.866 308.845L798.763 353.144L765.274 351.84L766.626 330.941L752.445 333.789L752.533 334.228L759.58 341.038L749.938 337.557L745.351 314.717L749.534 319.621L787.308 312.035L780.199 305.238L789.866 308.845Z" fill="#1C3244"/>
<path d="M22 405.279L29.685 397.53L37.37 389.781L44.15 396.508C52.482 404.777 53.038 406.199 49.276 409.636C47.704 411.071 44.235 414.271 41.565 416.746L36.712 421.247L29.356 413.263L22 405.279Z" fill="#5F8A8E"/>
<path d="M766.071 402.442C765.617 401.012 767.281 398.717 772.799 393.162L780.13 385.781L787.405 393.007C791.406 396.981 794.679 400.705 794.679 401.283C794.679 401.861 791.34 405.649 787.26 409.703L779.841 417.072L773.257 410.707C769.636 407.207 766.403 403.487 766.071 402.442Z" fill="#5F8A8E"/>
<path d="M697.532 198.783C696.394 197.804 696.606 194.977 698.386 187.353L700.751 177.222L710.736 179.553C716.228 180.835 720.969 182.286 721.272 182.778C721.575 183.27 720.722 188.247 719.378 193.839L716.932 204.006L707.987 202.045C703.067 200.967 698.363 199.498 697.532 198.783Z" fill="#5F8A8E"/>
<path d="M528.79 72.2382C527.29 72.2056 525.656 69.8892 522.182 62.8718L517.567 53.5485L526.757 48.9998C531.811 46.4981 536.393 44.6045 536.94 44.7914C537.487 44.9782 539.992 49.3624 542.51 54.5338L547.085 63.9365L538.934 68.1096C534.451 70.4049 529.886 72.2618 528.79 72.2382Z" fill="#5F8A8E"/>
<path d="M164.578 146.476C163.996 147.859 161.241 148.525 153.437 149.171L143.07 150.03L142.224 139.811C141.758 134.191 141.684 129.234 142.06 128.794C142.435 128.354 147.433 127.639 153.168 127.202L163.595 126.409L164.474 135.525C164.958 140.538 165.004 145.466 164.578 146.476Z" fill="#5F8A8E"/>
</svg>
